<?xml version="1.0" encoding="UTF-8"?>
<svg width="140px" height="21px" viewBox="0 0 140 21" version="1.1" xmlns="http://www.w3.org/2000/svg" xmlns:xlink="http://www.w3.org/1999/xlink">
    <!-- Generator: Sketch 51.3 (57544) - http://www.bohemiancoding.com/sketch -->
    <title>nomad_logo</title>
    <desc>Created with Sketch.</desc>
    <defs></defs>
    <g id="Page-1" stroke="none" stroke-width="1" fill="none" fill-rule="evenodd">
        <g id="nomad_logo" fill="#424143" fill-rule="nonzero">
            <path d="M20.8,10.7 C20.8,5.2 16.3,0.7 10.8,0.7 C5.3,0.7 0.8,5.2 0.8,10.7 L0.8,20.3 L3.7,20.3 L3.7,10.7 C3.7,6.8 6.9,3.6 10.8,3.6 C14.7,3.6 17.9,6.8 17.9,10.7 L17.9,17.4 L14.5,17.4 L14.5,20.3 L24.2,20.3 L24.2,17.4 L20.8,17.4 L20.8,10.7 Z" id="Shape"></path>
            <rect id="Rectangle-path" x="25.9" y="17.4" width="2.9" height="2.9"></rect>
            <path d="M43.4,0.3 C40.5,0.3 38.1,1.3 36.1,3.3 C34.1,5.3 33.1,7.7 33.1,10.6 C33.1,13.5 34.1,15.9 36.1,17.8 C38.1,19.7 40.5,20.8 43.4,20.8 C46.3,20.8 48.7,19.8 50.7,17.8 C52.7,15.8 53.7,13.4 53.7,10.6 C53.7,7.7 52.7,5.3 50.7,3.3 C48.7,1.3 46.3,0.3 43.4,0.3 Z M48.5,15.7 C47.1,17.1 45.5,17.8 43.5,17.8 C41.5,17.8 39.8,17.1 38.5,15.7 C37.2,14.3 36.5,12.6 36.5,10.5 C36.5,8.4 37.2,6.7 38.5,5.3 C39.9,3.9 41.5,3.2 43.5,3.2 C45.5,3.2 47.2,3.9 48.5,5.3 C49.9,6.7 50.6,8.4 50.6,10.5 C50.5,12.6 49.8,14.3 48.5,15.7 Z" id="Shape"></path>
            <polygon id="Shape" points="74 15.5 66 0.7 63.2 0.7 63.2 20.3 66.3 20.3 66.3 7.8 73 20.3 74.9 20.3 81.7 7.8 81.7 20.3 84.7 20.3 84.7 0.7 82 0.7"></polygon>
            <path d="M136.3,3.4 C134.3,1.6 131.7,0.7 128.4,0.7 L121.5,0.7 L121.5,20.3 L128.4,20.3 C131.7,20.3 134.3,19.4 136.3,17.6 C138.3,15.8 139.2,13.4 139.2,10.5 C139.2,7.6 138.3,5.2 136.3,3.4 Z M134,15.5 C132.6,16.8 130.7,17.4 128.4,17.4 L124.7,17.4 L124.7,3.5 L128.4,3.5 C130.7,3.5 132.6,4.1 134,5.4 C135.4,6.7 136.1,8.4 136.1,10.4 C136.1,12.6 135.4,14.2 134,15.5 Z" id="Shape"></path>
            <path d="M101.7,0.7 L93.1,20.3 L96.5,20.3 L97.9,17.1 L98.5,15.8 L100.8,10.3 L101.2,9.2 C101.7,9.7 102.4,10.1 103.2,10.1 C104,10.1 104.7,9.8 105.2,9.2 L105.4,9.7 L108,15.8 L108.6,17.1 L110,20.3 L113.4,20.3 L104.8,0.7 C104.6,0.7 101.7,0.7 101.7,0.7 Z" id="Shape"></path>
        </g>
    </g>
</svg>